<?xml version="1.0" encoding="UTF-8"?>
<svg id="Camada_2" data-name="Camada 2" xmlns="http://www.w3.org/2000/svg" viewBox="0 0 762.46 370.01">
  <defs>
    <style>
      .cls-1 {
        fill: #20571d;
      }

      .cls-2 {
        fill: #365500;
      }

      .cls-2, .cls-3, .cls-4 {
        stroke: #fff;
        stroke-miterlimit: 10;
        stroke-width: 2px;
      }

      .cls-3 {
        fill: none;
      }

      .cls-5 {
        fill: #2b9109;
      }
    </style>
  </defs>
  <g id="elementos">
    <g>
      <path class="cls-1" d="M705.18,38.79c9.83,42.78-4.56,108.32-46.96,141.89-24.88,19.7-79.84,38.12-105.14,23.99-36.43-20.35-25.22-117.23,14.97-152.98,2.54-2.26,45.89-41.73,90.68-41.99,5.98-.04,35.62-18.02,46.45,29.09Z"/>
      <g>
        <path class="cls-1" d="M110.87,224.33h-33.77l-35.71-100.63v-19.52h31.83V35.54h-40.83v188.79H0V7.72h85.96c13.01,0,19.52,6.64,19.52,19.93v78.76c0,9.14-3.09,15.04-9.27,17.72-3.32,1.38-10.34,2.08-21.04,2.08l35.71,98.13Z"/>
        <path class="cls-1" d="M239.87,204.54c0,13.2-6.55,19.79-19.65,19.79h-70.31c-12.83,0-19.24-6.6-19.24-19.79V27.65c0-13.29,6.41-19.93,19.24-19.93h70.31c13.1,0,19.65,6.64,19.65,19.93v176.89ZM207.48,196.51V35.54h-44.43v160.97h44.43Z"/>
        <path class="cls-1" d="M360.01,36.37h-35.71v187.96h-32.25V36.37h-35.71V7.72h103.67v28.65Z"/>
        <path class="cls-1" d="M486.25,224.33h-32.11l-6.51-41.11h-40.55l-6.51,41.11h-31.97v-.55L410.53,7.44h34.05l41.66,216.89ZM443.06,155.41l-15.78-97.72-15.92,97.72h31.7Z"/>
      </g>
      <path class="cls-5" d="M62.84,358.41c0,7.63-3.79,11.45-11.37,11.45H13.77c-7.52,0-11.29-3.81-11.29-11.45v-29.86h18.73v25.54h22.89v-24.58l-37.54-35.54c-2.72-2.61-4.08-5.95-4.08-10.01v-27.86c0-7.68,3.76-11.53,11.29-11.53h37.7c7.58,0,11.37,3.79,11.37,11.37v28.02h-18.73v-23.61h-22.89v22.65l37.54,35.38c2.72,2.56,4.08,5.95,4.08,10.17v29.86Z"/>
      <path class="cls-5" d="M140.41,358.41c0,7.63-3.84,11.45-11.53,11.45h-39.78c-7.58,0-11.37-3.81-11.37-11.45v-113.83h18.73v109.19h25.21v-109.19h18.73v113.83Z"/>
      <path class="cls-5" d="M215.49,358.41c0,7.63-3.79,11.45-11.37,11.45h-37.7c-7.52,0-11.29-3.81-11.29-11.45v-29.86h18.73v25.54h22.89v-24.58l-37.54-35.54c-2.72-2.61-4.08-5.95-4.08-10.01v-27.86c0-7.68,3.76-11.53,11.29-11.53h37.7c7.58,0,11.37,3.79,11.37,11.37v28.02h-18.73v-23.61h-22.89v22.65l37.54,35.38c2.72,2.56,4.08,5.95,4.08,10.17v29.86Z"/>
      <path class="cls-5" d="M284.81,261.15h-20.65v108.7h-18.65v-108.7h-20.65v-16.57h59.96v16.57Z"/>
      <path class="cls-5" d="M346.29,369.85h-51.95v-125.28h51.47v16.57h-32.74v36.58h28.18v16.25h-28.18v39.3h33.22v16.57Z"/>
      <path class="cls-5" d="M422.58,369.85h-16.41l-30.02-78.85c.8,3.84,1.2,6.86,1.2,9.05v69.8h-18.25v-125.28h16.41l30.02,77.25c-.8-3.84-1.2-6.86-1.2-9.05v-68.2h18.25v125.28Z"/>
      <path class="cls-5" d="M492.06,261.15h-20.65v108.7h-18.65v-108.7h-20.65v-16.57h59.96v16.57Z"/>
      <path class="cls-5" d="M565.06,369.85h-18.57l-3.76-23.77h-23.45l-3.76,23.77h-18.49v-.32l24.25-125.11h19.69l24.1,125.44ZM556.1,218l-23.29,21.13h-13.45v-.64l13.77-21.21h22.97v.72ZM540.09,329.99l-9.13-56.51-9.21,56.51h18.33Z"/>
      <path class="cls-5" d="M637.9,244.58l-24.01,125.44h-18.65l-23.93-125.44h18.81l14.01,85.89c.11,2.46.27,6.03.48,10.73-.05-2.45.11-6.03.48-10.73l14.09-85.89h18.73Z"/>
      <path class="cls-5" d="M700.42,369.85h-51.95v-125.28h51.47v16.57h-32.74v36.58h28.18v16.25h-28.18v39.3h33.22v16.57Z"/>
      <path class="cls-5" d="M762.46,369.85h-49.23v-125.28h18.73v108.55h30.5v16.73Z"/>
      <path class="cls-3" d="M516.15,209.65c15.34,8.63,24.27-1.01,30.11-6.79.58-.57,1.16-1.16,1.76-1.76,43.9-44.71,141.15-189.87,141.15-189.87"/>
      <line class="cls-4" x1="553.08" y1="91.87" x2="569.72" y2="177.47"/>
      <line class="cls-4" x1="654.14" y1="167.41" x2="569.72" y2="177.47"/>
      <line class="cls-4" x1="581.66" y1="55.12" x2="599.07" y2="137.71"/>
      <line class="cls-4" x1="683.23" y1="129.64" x2="599.07" y2="137.71"/>
      <line class="cls-2" x1="616.88" y1="31.64" x2="631.69" y2="93.52"/>
      <line class="cls-2" x1="695.99" y1="88.81" x2="631.69" y2="93.52"/>
      <line class="cls-2" x1="654.14" y1="19.91" x2="661.33" y2="53.36"/>
      <line class="cls-2" x1="694.46" y1="50.02" x2="661.33" y2="53.36"/>
      <path class="cls-1" d="M699.56,0c-6.32,1.44-12.64,2.89-18.96,4.33-1.83.55-3.69.96-5.57,1.27-.16.04-.33.07-.49.11-.92.29-1.9.5-2.92.67-2.59.59-5.19,1.19-7.78,1.78.49.31,37.77,23.99,37.77,23.99-.68-10.72-1.36-21.44-2.04-32.15Z"/>
      <polyline class="cls-1" points="663.84 8.17 656.03 9.77 671.87 14.01 702.35 29.03 700.46 28.81"/>
    </g>
  </g>
</svg>